<svg xmlns="http://www.w3.org/2000/svg" viewBox="0 0 433.26 428"><defs><style>.cls-1{fill:#f3f3f3;}.cls-2,.cls-4{fill:none;}.cls-3{fill:#db0011;}.cls-4{stroke:#db0011;stroke-miterlimit:10;stroke-width:2px;}</style></defs><title>Asset 2</title><g id="Layer_2" data-name="Layer 2"><g id="Layer_1-2" data-name="Layer 1"><polygon class="cls-1" points="433.26 0 0 0 216.63 216.63 433.26 0"/><polygon class="cls-1" points="5.27 428 428 428 216.63 216.63 5.27 428"/><rect class="cls-2" x="29.13" width="374.86" height="428"/><path d="M155.21,101.09l4.52,13h-2.81L156,111.3h-5.15l-1,2.81H147.2l4.7-13Zm.07,8.1-1.8-5.55-1.93,5.55Z"/><path d="M161.13,101.09h2.79v5.2h4.92v-5.2h2.83v13h-2.79V108.4h-5v5.71h-2.79Z"/><path d="M179.74,100.82a6,6,0,0,1,4.57,1.76,7.48,7.48,0,0,1,1.66,4.9,8,8,0,0,1-1.64,5.1,6.19,6.19,0,0,1-4.63,1.85,6.3,6.3,0,0,1-4.61-1.78,7.14,7.14,0,0,1-1.6-4.86C173.49,104.33,175.06,100.82,179.74,100.82Zm-2.36,10.52a2.68,2.68,0,0,0,2.36,1,2.64,2.64,0,0,0,2.43-1.21,6.29,6.29,0,0,0,.88-3.73,7.48,7.48,0,0,0-.32-2.32,3,3,0,0,0-3-2.3,3,3,0,0,0-2.39,1.1,7.62,7.62,0,0,0,0,7.42Z"/><path d="M187.64,101.09h5c1.44,0,2.9,0,3.94.88a3.3,3.3,0,0,1,1.13,2.5,3.25,3.25,0,0,1-2.72,3.19c2,.18,2.11,1.3,2.34,3,.2,1.53.31,2.16.4,2.52a2.35,2.35,0,0,0,.4.94H195c-.13-.72-.52-4-.7-4.52-.25-.74-.94-.74-1.4-.74h-2.45v5.26h-2.85Zm2.75,5.69h2.25a2.29,2.29,0,0,0,1.42-.36,1.8,1.8,0,0,0,.72-1.51,1.63,1.63,0,0,0-.68-1.46,3.07,3.07,0,0,0-1.84-.31H190.4Z"/><path d="M199.47,101.09h5c1.44,0,2.9,0,3.94.88a3.3,3.3,0,0,1,1.13,2.5,3.25,3.25,0,0,1-2.72,3.19c2,.18,2.11,1.3,2.34,3,.2,1.53.31,2.16.4,2.52a2.34,2.34,0,0,0,.4.94h-3.08c-.13-.72-.52-4-.7-4.52-.25-.74-.94-.74-1.4-.74h-2.45v5.26h-2.84Zm2.75,5.69h2.25a2.29,2.29,0,0,0,1.42-.36,1.8,1.8,0,0,0,.72-1.51,1.63,1.63,0,0,0-.68-1.46,3.07,3.07,0,0,0-1.84-.31h-1.87Z"/><path d="M218.32,101.09l4.52,13H220l-.94-2.81h-5.15l-1,2.81H210.3l4.7-13Zm.07,8.1-1.8-5.55-1.93,5.55Zm-1.44-9h-1.44l1.5-2.61h2.41Z"/><path d="M229.06,101.09h2.79v5.2h4.92v-5.2h2.83v13H236.8V108.4h-5v5.71h-2.79Z"/><path d="M248.77,101.09l4.52,13h-2.81l-.94-2.81h-5.15l-1,2.81h-2.67l4.7-13Zm.07,8.1-1.8-5.55-1.93,5.55Z"/><path d="M256.6,109.95a2.13,2.13,0,0,0,2.36,2.47c1.51,0,2.47-.72,2.47-1.82s-.81-1.35-2.47-1.75c-3.1-.77-4.79-1.69-4.79-3.94s1.53-4,5.15-4a4.87,4.87,0,0,1,3.92,1.53,3.75,3.75,0,0,1,.74,2.41H261.3a1.93,1.93,0,0,0-2.11-2c-1.3,0-2.14.7-2.14,1.76s1,1.42,2.83,1.89c2.25.54,4.47,1.15,4.47,3.69,0,2.34-1.94,4.23-5.55,4.23-5,0-5-3.2-5-4.46Z"/><path d="M268.71,103.25h-3.87v-2.16h10.55v2.16h-3.87v10.86h-2.81Z"/><path d="M281.8,101.09l4.52,13h-2.81l-.94-2.81h-5.15l-1,2.81h-2.66l4.7-13Zm.07,8.1-1.8-5.55-1.93,5.55Z"/><path class="cls-3" d="M50.37,254.71V251c6.6-8.79,8-9.81,8-12.42,0-1-.39-2-1.59-2-1.74,0-1.83,1.65-1.83,3H50.7c-.3-3.9,1.89-6.06,5.76-6.06,3.63,0,6.12,1.47,6.12,5.4,0,4.71-5.49,10-7.77,12.57h8v3.24Z"/><path class="cls-3" d="M76,244.18c0,6.57-.42,10.8-6.06,10.8s-6.06-4.23-6.06-10.8c0-8,.9-10.68,6.06-10.68S76,236.17,76,244.18Zm-7.89.06c0,6.33.15,7.68,1.83,7.68s1.83-1.35,1.83-7.68,0-7.68-1.83-7.68S68.16,237.79,68.16,244.24Z"/><path class="cls-3" d="M77.61,239.44c0-3.12.69-5.67,4.32-5.67s4.32,2.55,4.32,5.67c0,3.54-1,5.4-4.32,5.4S77.61,243,77.61,239.44Zm5.79-.33c0-1,.06-3-1.47-3s-1.47,1.92-1.47,3c0,2.49.15,3.36,1.47,3.36S83.4,241.6,83.4,239.11ZM85,255.34H82.74l8.76-22h2.22Zm5.43-6c0-3.12.69-5.67,4.32-5.67S99,246.19,99,249.31c0,3.54-1,5.4-4.32,5.4S90.39,252.85,90.39,249.31Zm5.79-.33c0-1,.06-3-1.47-3s-1.47,1.92-1.47,3c0,2.49.15,3.36,1.47,3.36S96.18,251.47,96.18,249Z"/><path d="M107.13,233.05h5.16l3.09,7.11,3-7.11h4.71l-5.4,10.71,5.49,10.95h-5.13l-3.33-7.47-3.33,7.47h-4.68l5.61-11.34Z"/><path d="M131.79,254.71V233.05H143v3.33h-6.72v5.55h6.42v3.33h-6.42v9.45Z"/><path d="M143,254.71l6-21.66h6l5.88,21.66h-4.77l-1.2-4.8h-6.18l-1.23,4.8Zm8.73-17.49h-.06l-2.07,9.36h4.32Z"/><path d="M162.78,243.88c0-5.73,0-11.19,7.47-11.19,4.62,0,6.48,2.55,6.3,7.2h-4.44c0-2.88-.51-4-1.86-4-2.55,0-2.88,2.4-2.88,8s.33,7.95,2.88,7.95c2.1,0,2-2.7,2.07-4.41h4.47c0,5.79-2.31,7.65-6.54,7.65C162.78,255.07,162.78,249.55,162.78,243.88Z"/><path d="M192.56,233.05v3.6h-5v18.06H183V236.65h-5v-3.6Z"/><path d="M209.3,233.05v15.36c0,3.24-1.83,6.66-7.35,6.66-5,0-7.38-2.58-7.38-6.66V233.05h4.53v15.06c0,2.67,1.14,3.72,2.79,3.72,2,0,2.88-1.32,2.88-3.72V233.05Z"/><path d="M217.44,254.71h-4.53V233.05h8.37c3.09,0,5.07,2,5.07,5.67,0,2.76-1.08,4.83-4,5.31v.06c1,.12,3.93.36,3.93,4.26,0,1.38.09,5.46.51,6.36h-4.44a9.94,9.94,0,0,1-.48-4.2c0-2.58.24-4.77-3.24-4.77h-1.17Zm0-12.3h2c1.8,0,2.31-1.8,2.31-3.18,0-2.07-.87-2.85-2.31-2.85h-2Z"/><path d="M228,254.71l6-21.66h6l5.88,21.66H241.1l-1.2-4.8h-6.18l-1.23,4.8Zm8.73-17.49h-.06l-2.07,9.36h4.32Z"/><path d="M253.25,233.05h5.16l3.09,7.11,3-7.11h4.71l-5.4,10.71,5.49,10.95H264.2l-3.33-7.47-3.33,7.47h-4.68l5.61-11.34Z"/><path class="cls-3" d="M284.21,238.3a2.32,2.32,0,0,0-.27-1.35,1.31,1.31,0,0,0-1.2-.57c-1.86,0-1.92.93-1.92,6.24a4.29,4.29,0,0,1,3.36-1.44c3.9,0,4.65,3.45,4.65,6.66,0,4.35-1.59,7.14-6.3,7.14-5.46,0-5.85-4.68-5.85-9,0-8.34.45-12.51,6.42-12.51,3.18,0,5.55,1.35,5.52,4.8Zm.39,9.57c0-2.64-.33-3.81-1.92-3.81s-1.77,1.53-1.77,4.17c0,1.23,0,3.69,1.74,3.69C284.09,251.92,284.6,251.11,284.6,247.87Z"/><path d="M297.89,254.71V233.05h7.29l3.39,14.73h.06l3.6-14.73h7v21.66h-4.41V238h-.06l-4.17,16.71h-4.32l-4-16.71h-.06v16.71Z"/><path d="M323,254.71V233.05h11.82v3.33H327.5v5.34h6.72v3.33H327.5v6.33H335v3.33Z"/><path d="M343.85,255.07c-5.61,0-6.66-3.3-6.42-7H342c0,2.07.09,3.81,2.58,3.81a2.17,2.17,0,0,0,2.28-2.46c0-3.9-9.12-4.14-9.12-10.59,0-3.39,1.62-6.09,7.14-6.09,4.41,0,6.6,2,6.3,6.51h-4.41c0-1.62-.27-3.27-2.1-3.27a2.11,2.11,0,0,0-2.34,2.31c0,4.11,9.12,3.75,9.12,10.56C351.41,254.41,347.3,255.07,343.85,255.07Z"/><path d="M354.65,254.71V233.05h11.82v3.33h-7.29v5.34h6.72v3.33h-6.72v6.33h7.53v3.33Z"/><path d="M375.53,255.07c-5.61,0-6.66-3.3-6.42-7h4.53c0,2.07.09,3.81,2.58,3.81a2.17,2.17,0,0,0,2.28-2.46c0-3.9-9.12-4.14-9.12-10.59,0-3.39,1.62-6.09,7.14-6.09,4.41,0,6.6,2,6.3,6.51h-4.41c0-1.62-.27-3.27-2.1-3.27a2.11,2.11,0,0,0-2.34,2.31c0,4.11,9.12,3.75,9.12,10.56C383.09,254.41,379,255.07,375.53,255.07Z"/><path d="M49.16,261.38h2.65c2.08,0,2.47,1.39,2.47,3.75,0,1.17.18,3.83-2.53,3.83H49.16Zm1.58,6.42h.77c1,0,1.15-.72,1.15-2.62,0-1.4,0-2.62-1.1-2.62h-.82Z"/><path d="M55.55,269v-7.58h4.14v1.17H57.13v1.87h2.35v1.17H57.13v2.22h2.64V269Z"/><path d="M62.55,269l2.1-7.58h2.09L68.8,269H67.13l-.42-1.68H64.55L64.12,269Zm3.05-6.12h0l-.72,3.28h1.51Z"/><path d="M73,264.41v-3h1.59V269H73v-3.38H71.18V269H69.6v-7.58h1.59v3Z"/><path d="M75.89,265.17c0-2,0-3.92,2.61-3.92s2.61,1.91,2.61,3.92,0,3.92-2.61,3.92S75.89,267.15,75.89,265.17Zm3.62,0c0-1.94-.12-2.78-1-2.78s-1,.84-1,2.78.12,2.78,1,2.78S79.51,267.11,79.51,265.17Z"/><path d="M83.93,269H82.34v-7.58h2.93c1.08,0,1.77.69,1.77,2a1.64,1.64,0,0,1-1.41,1.86v0A1.35,1.35,0,0,1,87,266.73a10.35,10.35,0,0,0,.18,2.23H85.64a3.48,3.48,0,0,1-.17-1.47c0-.9.08-1.67-1.13-1.67h-.41Zm0-4.3h.7c.63,0,.81-.63.81-1.11,0-.72-.3-1-.81-1h-.7Z"/><path d="M89.77,269H88.18v-7.58h2.93c1.08,0,1.77.69,1.77,2a1.64,1.64,0,0,1-1.41,1.86v0a1.35,1.35,0,0,1,1.38,1.49A10.35,10.35,0,0,0,93,269H91.48a3.48,3.48,0,0,1-.17-1.47c0-.9.08-1.67-1.13-1.67h-.41Zm0-4.3h.7c.63,0,.81-.63.81-1.11,0-.72-.3-1-.81-1h-.7Z"/><path d="M94,265.17c0-2,0-3.92,2.61-3.92s2.61,1.91,2.61,3.92,0,3.92-2.61,3.92S94,267.15,94,265.17Zm3.62,0c0-1.94-.12-2.78-1-2.78s-1,.84-1,2.78.12,2.78,1,2.78S97.6,267.11,97.6,265.17Z"/><path class="cls-3" d="M75.78,182.44c-.25,8.2,5.25,9.1,7,9.1V177c-8.77-2.46-17-5.66-17-16.73A15.44,15.44,0,0,1,70,149.48c4.67-5.08,10.25-5.49,13.28-5.82v-6.89h4.51v6.72c4.35.33,9.27,1.07,13.12,4.92s4,8.53,4.1,11.23H94c-.25-6.07-2.79-7.13-6.4-7.54v14.6c9.18,2.3,18,5.08,18,16.81a16.14,16.14,0,0,1-7,13.2A20.73,20.73,0,0,1,87,200.24v8.2H82.67v-8.2a18.6,18.6,0,0,1-13.53-4.84c-3.44-3.2-4.35-7.3-4.51-13Zm7.38-30.18c-4.26.25-6.23,3-6.23,6.4,0,4.67,3,5.82,6.23,6.81Zm4,39.44c3.36-.33,6.64-2.62,6.64-7,0-3.44-1.89-5.49-6.64-6.81Z"/><path class="cls-3" d="M122.93,186a6.42,6.42,0,0,0,6.72,6.4c4.43,0,8.45-3.2,8.45-10.74,0-5.49-2.13-10.25-7.63-10.25s-6.89,4.43-7.3,5.74l-11.89-.33,1.31-33.87h34.69v9.35H123.42l-.74,14.19c1.8-1.56,4.51-4.1,10.82-4.1,9.18,0,16.89,6.72,16.89,18.2,0,9.76-5.74,20.75-20.42,20.75-6,0-12.05-1.56-16-6.23a14.17,14.17,0,0,1-3.2-9.1Z"/><path class="cls-3" d="M176.88,142a17.49,17.49,0,0,1,14.92,7.54c3,4.35,5.17,9.92,5.17,20.66,0,13.28-3,30.75-20.25,30.75C162,201,157,186.87,157,171.62,157,164,158.52,142,176.88,142Zm6.31,16.15c-.33-1.56-1.72-6.64-6.23-6.64-3.53,0-5.08,3.2-5.66,4.92-1.89,5.82-1.89,14.6-1.89,16,0,9.76,1.48,18.86,7.63,18.86,6.56,0,7.63-11.15,7.63-19C184.67,168.67,184.27,161.94,183.2,158.17Z"/><path class="cls-3" d="M205.5,189.17h10.41v10.91H205.5Z"/><path class="cls-3" d="M245.27,142a17.49,17.49,0,0,1,14.92,7.54c3,4.35,5.17,9.92,5.17,20.66,0,13.28-3,30.75-20.25,30.75-14.68,0-19.76-14.1-19.76-29.36C225.35,164,226.9,142,245.27,142Zm6.31,16.15c-.33-1.56-1.72-6.64-6.23-6.64-3.53,0-5.08,3.2-5.66,4.92-1.89,5.82-1.89,14.6-1.89,16,0,9.76,1.48,18.86,7.63,18.86,6.56,0,7.63-11.15,7.63-19C253.06,168.67,252.65,161.94,251.59,158.17Z"/><path class="cls-3" d="M292.5,142a17.49,17.49,0,0,1,14.92,7.54c3,4.35,5.17,9.92,5.17,20.66,0,13.28-3,30.75-20.25,30.75-14.68,0-19.76-14.1-19.76-29.36C272.58,164,274.14,142,292.5,142Zm6.31,16.15c-.33-1.56-1.72-6.64-6.23-6.64-3.53,0-5.08,3.2-5.66,4.92-1.89,5.82-1.89,14.6-1.89,16,0,9.76,1.48,18.86,7.63,18.86,6.56,0,7.63-11.15,7.63-19C300.29,168.67,299.88,161.94,298.82,158.17Z"/><path class="cls-3" d="M339.74,142a17.49,17.49,0,0,1,14.92,7.54c3,4.35,5.17,9.92,5.17,20.66,0,13.28-3,30.75-20.25,30.75-14.68,0-19.76-14.1-19.76-29.36C319.81,164,321.37,142,339.74,142ZM346,158.17c-.33-1.56-1.72-6.64-6.23-6.64-3.53,0-5.08,3.2-5.66,4.92-1.89,5.82-1.89,14.6-1.89,16,0,9.76,1.48,18.86,7.63,18.86,6.56,0,7.63-11.15,7.63-19C347.53,168.67,347.12,161.94,346,158.17Z"/><rect class="cls-4" x="49.05" y="122.54" width="334.67" height="101.31"/></g></g></svg>