<svg xmlns="http://www.w3.org/2000/svg" viewBox="0 0 377.09 203.14"><defs><style>.cls-1{fill:#f3f3f3;}.cls-2{fill:#db0011;}.cls-3{fill:none;stroke:#db0011;stroke-miterlimit:10;stroke-width:2px;}</style></defs><title>Asset 1</title><g id="Layer_2" data-name="Layer 2"><g id="Layer_1-2" data-name="Layer 1"><polygon class="cls-1" points="188.01 102.96 87.84 203.14 288.18 203.14 188.01 102.96"/><polygon class="cls-1" points="290.97 0 85.05 0 188.01 102.96 290.97 0"/><path d="M126.54,17l4.52,13h-2.81l-.94-2.81h-5.15l-1,2.81h-2.67l4.7-13Zm.07,8.1-1.8-5.55-1.93,5.55Z"/><path d="M132.46,17h2.79v5.2h4.92V17H143V30H140.2V24.33h-5V30h-2.79Z"/><path d="M151.07,16.75a6,6,0,0,1,4.57,1.76,7.48,7.48,0,0,1,1.66,4.9,8,8,0,0,1-1.64,5.1A6.19,6.19,0,0,1,151,30.36a6.3,6.3,0,0,1-4.61-1.78,7.15,7.15,0,0,1-1.6-4.86C144.82,20.26,146.39,16.75,151.07,16.75Zm-2.36,10.52a2.68,2.68,0,0,0,2.36,1,2.64,2.64,0,0,0,2.43-1.21,6.28,6.28,0,0,0,.88-3.73,7.5,7.5,0,0,0-.32-2.32,3,3,0,0,0-3-2.3,3,3,0,0,0-2.39,1.1,6,6,0,0,0-1,3.78A6,6,0,0,0,148.71,27.26Z"/><path d="M159,17h5c1.44,0,2.9,0,3.94.88A3.3,3.3,0,0,1,169,20.4a3.25,3.25,0,0,1-2.72,3.19c2,.18,2.11,1.3,2.34,3a25.45,25.45,0,0,0,.4,2.52,2.34,2.34,0,0,0,.4.94h-3.08c-.13-.72-.52-4-.7-4.52-.25-.74-.94-.74-1.4-.74h-2.45V30H159Zm2.75,5.69H164a2.29,2.29,0,0,0,1.42-.36,1.8,1.8,0,0,0,.72-1.51,1.63,1.63,0,0,0-.68-1.46,3.07,3.07,0,0,0-1.84-.31h-1.87Z"/><path d="M170.79,17h5c1.44,0,2.9,0,3.94.88a3.3,3.3,0,0,1,1.13,2.5,3.25,3.25,0,0,1-2.72,3.19c2,.18,2.11,1.3,2.34,3,.2,1.53.31,2.16.4,2.52a2.34,2.34,0,0,0,.4.94H178.2c-.13-.72-.52-4-.7-4.52-.25-.74-.94-.74-1.4-.74h-2.45V30h-2.84Zm2.75,5.69h2.25a2.29,2.29,0,0,0,1.42-.36,1.8,1.8,0,0,0,.72-1.51,1.63,1.63,0,0,0-.68-1.46,3.07,3.07,0,0,0-1.84-.31h-1.87Z"/><path d="M189.64,17l4.52,13h-2.81l-.94-2.81h-5.15l-1,2.81h-2.66l4.7-13Zm.07,8.1-1.8-5.55L186,25.12Zm-1.44-9h-1.44l1.49-2.61h2.41Z"/><path d="M200.39,17h2.79v5.2h4.92V17h2.83V30h-2.79V24.33h-5V30h-2.79Z"/><path d="M220.1,17l4.52,13h-2.81l-.94-2.81h-5.15l-1,2.81h-2.66l4.7-13Zm.07,8.1-1.8-5.55-1.93,5.55Z"/><path d="M227.93,25.87a2.13,2.13,0,0,0,2.36,2.47c1.51,0,2.47-.72,2.47-1.82s-.81-1.35-2.47-1.75c-3.1-.77-4.79-1.69-4.79-3.94s1.53-4,5.15-4a4.87,4.87,0,0,1,3.93,1.53,3.75,3.75,0,0,1,.74,2.41h-2.68a1.93,1.93,0,0,0-2.11-2c-1.3,0-2.14.7-2.14,1.76s1,1.42,2.83,1.89c2.25.54,4.47,1.15,4.47,3.69,0,2.34-1.94,4.23-5.55,4.23-5,0-5-3.2-5-4.46Z"/><path d="M240,19.18h-3.87V17h10.55v2.16h-3.87V30H240Z"/><path d="M253.13,17l4.52,13h-2.81l-.94-2.81h-5.15l-1,2.81h-2.66l4.7-13Zm.07,8.1-1.8-5.55-1.93,5.55Z"/><path class="cls-2" d="M0,173.53v-4.18c7.48-10,9-11.12,9-14.07,0-1.19-.44-2.31-1.8-2.31-2,0-2.07,1.87-2.07,3.4H.37c-.34-4.42,2.14-6.87,6.53-6.87,4.11,0,6.94,1.67,6.94,6.12,0,5.34-6.22,11.39-8.81,14.24h9v3.67Z"/><path class="cls-2" d="M29.1,161.59c0,7.45-.48,12.24-6.87,12.24s-6.87-4.79-6.87-12.24c0-9.08,1-12.1,6.87-12.1S29.1,152.52,29.1,161.59Zm-8.94.07c0,7.17.17,8.7,2.07,8.7s2.07-1.53,2.07-8.7,0-8.7-2.07-8.7S20.16,154.35,20.16,161.66Z"/><path class="cls-2" d="M30.87,156.22c0-3.54.78-6.42,4.9-6.42s4.9,2.89,4.9,6.42c0,4-1.09,6.12-4.9,6.12S30.87,160.23,30.87,156.22Zm6.56-.37c0-1.19.07-3.37-1.67-3.37s-1.67,2.18-1.67,3.37c0,2.82.17,3.81,1.67,3.81S37.43,158.67,37.43,155.85Zm1.77,18.39H36.68l9.93-24.89h2.52Zm6.15-6.83c0-3.54.78-6.43,4.9-6.43s4.9,2.89,4.9,6.43c0,4-1.09,6.12-4.9,6.12S45.35,171.42,45.35,167.41Zm6.56-.37c0-1.19.07-3.37-1.67-3.37s-1.67,2.18-1.67,3.37c0,2.82.17,3.81,1.67,3.81S51.91,169.86,51.91,167Z"/><path d="M64.33,149h5.85l3.5,8.06L77.11,149h5.34l-6.12,12.14,6.22,12.41H76.73L73,165.06l-3.77,8.46h-5.3l6.36-12.85Z"/><path d="M92.27,173.53V149H105v3.77H97.41V159h7.28v3.77H97.41v10.71Z"/><path d="M105,173.53l6.8-24.55h6.77l6.66,24.55h-5.41l-1.36-5.44h-7l-1.39,5.44Zm9.89-19.82h-.07l-2.35,10.61h4.9Z"/><path d="M127.4,161.25c0-6.49,0-12.68,8.47-12.68,5.24,0,7.34,2.89,7.14,8.16h-5c0-3.26-.58-4.49-2.11-4.49-2.89,0-3.26,2.72-3.26,9s.37,9,3.26,9c2.38,0,2.28-3.06,2.35-5h5.07c0,6.56-2.62,8.67-7.41,8.67C127.4,173.94,127.4,167.68,127.4,161.25Z"/><path d="M161.16,149v4.08h-5.71v20.47h-5.13V153.06H144.6V149Z"/><path d="M180.13,149v17.41c0,3.67-2.07,7.55-8.33,7.55-5.64,0-8.36-2.92-8.36-7.55V149h5.13V166c0,3,1.29,4.22,3.16,4.22,2.24,0,3.26-1.5,3.26-4.22V149Z"/><path d="M189.34,173.53h-5.13V149h9.49c3.5,0,5.75,2.24,5.75,6.43,0,3.13-1.22,5.47-4.56,6v.07c1.12.14,4.45.41,4.45,4.83,0,1.56.1,6.19.58,7.21h-5a11.27,11.27,0,0,1-.54-4.76c0-2.92.27-5.41-3.67-5.41h-1.33Zm0-13.94h2.28c2,0,2.62-2,2.62-3.6,0-2.35-1-3.23-2.62-3.23h-2.28Z"/><path d="M201.35,173.53l6.8-24.55h6.77l6.66,24.55h-5.41l-1.36-5.44h-7l-1.39,5.44Zm9.89-19.82h-.07l-2.35,10.61h4.9Z"/><path d="M229.94,149h5.85l3.5,8.06,3.43-8.06h5.34l-6.12,12.14,6.22,12.41h-5.81l-3.77-8.46-3.77,8.46h-5.3l6.36-12.85Z"/><path class="cls-2" d="M265,154.93a2.63,2.63,0,0,0-.31-1.53,1.48,1.48,0,0,0-1.36-.65c-2.11,0-2.18,1.05-2.18,7.07A4.86,4.86,0,0,1,265,158.2c4.42,0,5.27,3.91,5.27,7.55,0,4.93-1.8,8.09-7.14,8.09-6.19,0-6.63-5.3-6.63-10.17,0-9.45.51-14.18,7.28-14.18,3.6,0,6.29,1.53,6.26,5.44Zm.44,10.84c0-3-.37-4.32-2.18-4.32s-2,1.73-2,4.72c0,1.39,0,4.18,2,4.18C264.89,170.37,265.47,169.45,265.47,165.78Z"/><path d="M280.53,173.53V149h8.26l3.84,16.69h.07L296.78,149h8v24.55h-5V154.59h-.07L295,173.53h-4.9l-4.49-18.94h-.07v18.94Z"/><path d="M309,173.53V149h13.39v3.77h-8.26v6.05h7.62v3.77h-7.62v7.17h8.53v3.77Z"/><path d="M332.62,173.94c-6.36,0-7.55-3.74-7.28-8h5.13c0,2.35.1,4.32,2.92,4.32,1.73,0,2.58-1.12,2.58-2.79,0-4.42-10.33-4.69-10.33-12,0-3.84,1.84-6.9,8.09-6.9,5,0,7.48,2.24,7.14,7.38h-5c0-1.84-.31-3.71-2.38-3.71a2.39,2.39,0,0,0-2.65,2.62c0,4.66,10.33,4.25,10.33,12C341.18,173.19,336.53,173.94,332.62,173.94Z"/><path d="M344.86,173.53V149h13.39v3.77H350v6.05h7.62v3.77H350v7.17h8.53v3.77Z"/><path d="M368.52,173.94c-6.36,0-7.55-3.74-7.28-8h5.13c0,2.35.1,4.32,2.92,4.32,1.73,0,2.58-1.12,2.58-2.79,0-4.42-10.33-4.69-10.33-12,0-3.84,1.84-6.9,8.09-6.9,5,0,7.48,2.24,7.14,7.38h-5c0-1.84-.31-3.71-2.38-3.71a2.39,2.39,0,0,0-2.65,2.62c0,4.66,10.33,4.25,10.33,12C377.09,173.19,372.43,173.94,368.52,173.94Z"/><path d="M0,177.3h2.9c2.28,0,2.7,1.52,2.7,4.11,0,1.28.2,4.2-2.77,4.2H0Zm1.74,7h.84c1.06,0,1.27-.79,1.27-2.88,0-1.53,0-2.88-1.21-2.88h-.9Z"/><path d="M7,185.61V177.3h4.53v1.28H8.77v2h2.58v1.28H8.77v2.43h2.89v1.28Z"/><path d="M14.7,185.61,17,177.3h2.29l2.25,8.31H19.72l-.46-1.84H16.89l-.47,1.84ZM18,178.9h0l-.79,3.59h1.66Z"/><path d="M26.14,180.63V177.3h1.74v8.31H26.14V181.9h-2v3.71H22.42V177.3h1.74v3.33Z"/><path d="M29.3,181.45c0-2.2,0-4.29,2.86-4.29S35,179.26,35,181.45s0,4.29-2.86,4.29S29.3,183.63,29.3,181.45Zm4,0c0-2.13-.13-3-1.1-3s-1.1.92-1.1,3,.13,3,1.1,3S33.27,183.58,33.27,181.45Z"/><path d="M38.11,185.61H36.38V177.3h3.21c1.19,0,1.94.76,1.94,2.17a1.79,1.79,0,0,1-1.54,2v0a1.48,1.48,0,0,1,1.51,1.63,11.39,11.39,0,0,0,.2,2.44H40a3.81,3.81,0,0,1-.18-1.61c0-1,.09-1.83-1.24-1.83h-.45Zm0-4.72h.77c.69,0,.89-.69.89-1.22,0-.79-.33-1.09-.89-1.09h-.77Z"/><path d="M44.51,185.61H42.77V177.3H46c1.19,0,1.94.76,1.94,2.17a1.79,1.79,0,0,1-1.54,2v0a1.48,1.48,0,0,1,1.51,1.63,11.39,11.39,0,0,0,.2,2.44h-1.7A3.81,3.81,0,0,1,46.2,184c0-1,.09-1.83-1.24-1.83h-.45Zm0-4.72h.77c.69,0,.89-.69.89-1.22,0-.79-.33-1.09-.89-1.09h-.77Z"/><path d="M49.12,181.45c0-2.2,0-4.29,2.86-4.29s2.86,2.09,2.86,4.29,0,4.29-2.86,4.29S49.12,183.63,49.12,181.45Zm4,0c0-2.13-.13-3-1.1-3s-1.1.92-1.1,3,.13,3,1.1,3S53.09,183.58,53.09,181.45Z"/><path class="cls-2" d="M47.11,98.37c-.25,8.2,5.25,9.1,7,9.1V93c-8.77-2.46-17-5.66-17-16.73a15.44,15.44,0,0,1,4.18-10.82c4.67-5.08,10.25-5.49,13.28-5.82V52.7h4.51v6.72c4.35.33,9.27,1.07,13.12,4.92s4,8.53,4.1,11.23h-11c-.25-6.07-2.79-7.13-6.4-7.54v14.6c9.18,2.3,18,5.08,18,16.81a16.14,16.14,0,0,1-7,13.2,20.73,20.73,0,0,1-11.56,3.53v8.2H54v-8.2a18.6,18.6,0,0,1-13.53-4.84c-3.44-3.2-4.35-7.3-4.51-13Zm7.38-30.18c-4.26.25-6.23,3-6.23,6.4,0,4.67,3,5.82,6.23,6.81Zm4,39.44c3.36-.33,6.64-2.62,6.64-7,0-3.44-1.89-5.49-6.64-6.81Z"/><path class="cls-2" d="M94.26,101.9a6.42,6.42,0,0,0,6.72,6.4c4.43,0,8.45-3.2,8.45-10.74,0-5.49-2.13-10.25-7.63-10.25S94.91,91.73,94.5,93l-11.89-.33,1.31-33.87h34.69v9.35H94.75L94,82.38c1.8-1.56,4.51-4.1,10.82-4.1,9.18,0,16.89,6.72,16.89,18.2,0,9.76-5.74,20.75-20.42,20.75-6,0-12.05-1.56-16-6.23a14.17,14.17,0,0,1-3.2-9.1Z"/><path class="cls-2" d="M148.21,57.94a17.49,17.49,0,0,1,14.92,7.54c3,4.35,5.17,9.92,5.17,20.66,0,13.28-3,30.75-20.25,30.75-14.68,0-19.76-14.1-19.76-29.36C128.29,79.92,129.84,57.94,148.21,57.94Zm6.31,16.15c-.33-1.56-1.72-6.64-6.23-6.64-3.53,0-5.08,3.2-5.66,4.92-1.89,5.82-1.89,14.6-1.89,16,0,9.76,1.48,18.86,7.63,18.86,6.56,0,7.63-11.15,7.63-19C156,84.59,155.59,77.87,154.53,74.1Z"/><path class="cls-2" d="M176.83,105.09h10.41V116H176.83Z"/><path class="cls-2" d="M216.6,57.94a17.49,17.49,0,0,1,14.92,7.54c3,4.35,5.17,9.92,5.17,20.66,0,13.28-3,30.75-20.25,30.75-14.68,0-19.76-14.1-19.76-29.36C196.67,79.92,198.23,57.94,216.6,57.94Zm6.31,16.15c-.33-1.56-1.72-6.64-6.23-6.64-3.53,0-5.08,3.2-5.66,4.92-1.89,5.82-1.89,14.6-1.89,16,0,9.76,1.48,18.86,7.63,18.86,6.56,0,7.63-11.15,7.63-19C224.39,84.59,224,77.87,222.91,74.1Z"/><path class="cls-2" d="M263.83,57.94a17.49,17.49,0,0,1,14.92,7.54c3,4.35,5.17,9.92,5.17,20.66,0,13.28-3,30.75-20.25,30.75-14.68,0-19.76-14.1-19.76-29.36C243.91,79.92,245.46,57.94,263.83,57.94Zm6.31,16.15c-.33-1.56-1.72-6.64-6.23-6.64-3.53,0-5.08,3.2-5.66,4.92-1.89,5.82-1.89,14.6-1.89,16,0,9.76,1.48,18.86,7.63,18.86,6.56,0,7.63-11.15,7.63-19C271.62,84.59,271.21,77.87,270.15,74.1Z"/><path class="cls-2" d="M311.06,57.94A17.49,17.49,0,0,1,326,65.49c3,4.35,5.17,9.92,5.17,20.66,0,13.28-3,30.75-20.25,30.75-14.68,0-19.76-14.1-19.76-29.36C291.14,79.92,292.69,57.94,311.06,57.94Zm6.31,16.15c-.33-1.56-1.72-6.64-6.23-6.64-3.53,0-5.08,3.2-5.66,4.92-1.89,5.82-1.89,14.6-1.89,16,0,9.76,1.48,18.86,7.63,18.86,6.56,0,7.63-11.15,7.63-19C318.85,84.59,318.44,77.87,317.38,74.1Z"/><rect class="cls-3" x="1.06" y="38.46" width="374.5" height="101.31"/></g></g></svg>